<svg xmlns="http://www.w3.org/2000/svg" id="Group_3651" width="42.203" height="56.654" data-name="Group 3651" viewBox="0 0 42.203 56.654">
    <defs>
        <style>
            .cls-2{fill:#264a9f}
        </style>
    </defs>
    <path id="Path_2339" fill="none" d="M-904.213 5123.076a12.817 12.817 0 0 0-12.795-12.8h-.006a12.717 12.717 0 0 0-9.047 3.745 12.716 12.716 0 0 0-3.753 9.05 12.717 12.717 0 0 0 3.745 9.054 12.721 12.721 0 0 0 9.05 3.752 12.818 12.818 0 0 0 12.806-12.801zm-13.462 5.79a1.419 1.419 0 0 1-1.048-.46l-5.471-6.017a1.4 1.4 0 0 1-.367-1.02 1.408 1.408 0 0 1 .462-.98 1.425 1.425 0 0 1 1.021-.367 1.412 1.412 0 0 1 .981.462l4.281 4.709 5.547-7.854a1.4 1.4 0 0 1 .917-.58 1.4 1.4 0 0 1 .968.18h.052l.074.084a1.4 1.4 0 0 1 .545.892 1.406 1.406 0 0 1-.239 1.057l-6.564 9.3a1.434 1.434 0 0 1-.2.224 1.42 1.42 0 0 1-.958.369z" data-name="Path 2339" transform="translate(938.13 -5101.963)"/>
    <path id="Path_2340" d="M-902.332 5109.838l-.053-.116a20.988 20.988 0 0 0-11.86-10.987 20.984 20.984 0 0 0-16.156.618 21.079 21.079 0 0 0-10.628 10.956 20.892 20.892 0 0 0-1.659 8.223 18.593 18.593 0 0 0 .909 5.331 39.389 39.389 0 0 0 2.314 5.694 79.858 79.858 0 0 0 5.022 8.625c1.624 2.458 3.477 5.05 5.509 7.705 1.709 2.23 3.211 4.07 4.279 5.346h-5.894a1.418 1.418 0 0 0-1.416 1.417 1.418 1.418 0 0 0 1.416 1.416h17.943a1.418 1.418 0 0 0 1.417-1.416 1.418 1.418 0 0 0-1.417-1.417h-5.9c1.22-1.46 2.935-3.57 4.83-6.071 2.189-2.893 4.145-5.685 5.814-8.295a69.568 69.568 0 0 0 5.009-9.111 1.406 1.406 0 0 0 .041-1.084 1.4 1.4 0 0 0-.738-.794 1.408 1.408 0 0 0-1.084-.041 1.429 1.429 0 0 0-.811.772c-2.612 5.924-7.146 12.43-10.491 16.844-1.879 2.481-3.614 4.608-4.739 5.955-.309.371-.614.731-.91 1.077a154.017 154.017 0 0 1-9.6-12.522 78.005 78.005 0 0 1-6.075-10.34c-1.711-3.611-2.61-6.757-2.6-9.1a18.293 18.293 0 0 1 18.276-18.266.352.352 0 0 1 .056 0 18.164 18.164 0 0 1 18.2 17.481 1.422 1.422 0 0 0 1.472 1.357 1.425 1.425 0 0 0 1.355-1.474 20.84 20.84 0 0 0-1.831-7.783z" class="cls-2" data-name="Path 2340" transform="translate(942.688 -5097.408)"/>
    <path id="Path_2341" d="M-913.639 5131.81l6.564-9.3a1.4 1.4 0 0 0 .239-1.056 1.4 1.4 0 0 0-.545-.892l-.074-.085h-.052a1.4 1.4 0 0 0-.968-.18 1.4 1.4 0 0 0-.917.58l-5.547 7.854-4.281-4.709a1.408 1.408 0 0 0-.981-.462 1.421 1.421 0 0 0-1.021.367 1.407 1.407 0 0 0-.462.98 1.4 1.4 0 0 0 .367 1.02l5.471 6.017a1.421 1.421 0 0 0 1.048.46 1.417 1.417 0 0 0 .959-.373 1.413 1.413 0 0 0 .2-.221z" class="cls-2" data-name="Path 2341" transform="translate(935.252 -5105.505)"/>
    <path id="Path_2342" d="M-881.21 5134.126a1.418 1.418 0 0 0-1.417 1.416 1.419 1.419 0 0 0 1.417 1.417 1.42 1.42 0 0 0 1.418-1.417 1.418 1.418 0 0 0-1.418-1.416z" class="cls-2" data-name="Path 2342" transform="translate(921.425 -5110.407)"/>
    <path id="Path_2343" d="M-918.567 5105.891a15.529 15.529 0 0 0-11.052 4.583 15.533 15.533 0 0 0-4.573 11.057 15.649 15.649 0 0 0 15.633 15.625h.007a15.652 15.652 0 0 0 15.625-15.632 15.654 15.654 0 0 0-15.64-15.633zm-9.053 24.681a12.717 12.717 0 0 1-3.745-9.054 12.714 12.714 0 0 1 3.753-9.05 12.716 12.716 0 0 1 9.047-3.746h.006a12.817 12.817 0 0 1 12.795 12.8 12.818 12.818 0 0 1-12.8 12.8 12.719 12.719 0 0 1-9.057-3.75z" class="cls-2" data-name="Path 2343" transform="translate(939.682 -5100.411)"/>
</svg>
