<svg xmlns="http://www.w3.org/2000/svg" width="44.349" height="48.193" viewBox="0 0 44.349 48.193">
    <defs>
        <style>
            .cls-1{fill:none}.cls-2{fill:#0d3594}
        </style>
    </defs>
    <g id="Group_4134" data-name="Group 4134" transform="translate(-1340.386 -2274)">
        <g id="Group_4133" data-name="Group 4133" transform="translate(695.312 1052.195)">
            <path id="Path_10443" d="M678.12 1230.079h-2.974a2.487 2.487 0 0 1-1.041-.484 1.2 1.2 0 0 1-.314-1.2.565.565 0 0 0 .025-.177 1.245 1.245 0 0 0-1.224-1.255 1.207 1.207 0 0 0-1.2 1.212.51.51 0 0 0 .019.192l.034.115v.12a1.785 1.785 0 0 1-.267.886 1.485 1.485 0 0 1-1.083.588h-3.016l-.009 1.969h11.02z" class="cls-1" data-name="Path 10443" transform="translate(-10.241 -2.4)"/>
            <path id="Path_10444" d="M708.719 1269.515l-2.318 2.317-.69-.16-2.672-.615-1.71-.4-.188.188 1.9.994 2.2 1.152-2.2 2.2-.524.524-1.364-.2-.02.022 1.356.752.552.992.2.364.021-.019-.2-1.364 2.643-2.643.078-.078 2.145 4.094.186-.185-1.171-5.07 2.319-2.317a.389.389 0 1 0-.548-.553z" class="cls-1" data-name="Path 10444" transform="translate(-26.104 -22.164)"/>
            <path id="Path_10445" d="M701.249 1261.734c-.277-.025-.543-.081-.825-.081a8.871 8.871 0 0 0 0 17.743c.282 0 .548-.058.825-.082a8.824 8.824 0 0 0 0-17.579zm4.178 5.341l-1.973 1.974 1.171 5.069-1.375 1.373-2-3.828-.14-.267-1.568 1.569.195 1.365-1.151 1.154-.005-.007-1.19-2.146-2.161-1.19 1.157-1.161 1.366.2.829-.83.74-.738-.74-.386-3.357-1.759 1.375-1.373 1.982.457 2.672.616.417.1 1.977-1.977a1.265 1.265 0 0 1 1.786 1.793z" class="cls-1" data-name="Path 10445" transform="translate(-21.643 -18.556)"/>
            <path id="Path_10446" d="M678.278 1257.08a1.417 1.417 0 0 0-1.411-1.411h-18.452a1.42 1.42 0 0 0-1.428 1.41 1.42 1.42 0 0 0 1.412 1.427h18.468a1.417 1.417 0 0 0 1.411-1.426z" class="cls-2" data-name="Path 10446" transform="translate(-5.547 -15.768)"/>
            <path id="Path_10447" d="M658.429 1268.963a1.419 1.419 0 0 0-1.412 1.425 1.417 1.417 0 0 0 1.412 1.411H671.2a1.416 1.416 0 0 0 1.411-1.423 1.417 1.417 0 0 0-1.411-1.41z" class="cls-2" data-name="Path 10447" transform="translate(-5.561 -21.96)"/>
            <path id="Path_10448" d="M689.371 1250.881a10.616 10.616 0 0 0-9.765-9.479c-.252-.021-.493-.074-.748-.076h-.076a10.645 10.645 0 0 0 0 21.289h.053-.052a10.644 10.644 0 0 1-1.845-.171v3.862a1.024 1.024 0 0 1-1.009 1.008H648.8a1.03 1.03 0 0 1-1.015-1.006v-35.243a1.029 1.029 0 0 1 1.008-1.012h5.322v.329a2.052 2.052 0 0 0 2.037 2.065h12.453a2.06 2.06 0 0 0 2.053-2.062v-.332h5.267a1.021 1.021 0 0 1 1.008 1v10.435a10.751 10.751 0 0 1 1.845-.168h.076c.255 0 .5.053.748.075v-10.333a3.728 3.728 0 0 0-3.729-3.721h-5.269a2.346 2.346 0 0 0-2.306-2.382h-2.03a3.932 3.932 0 0 0-7.711 0h-2.017a2.334 2.334 0 0 0-2.317 2.319l-5.422.021a3.726 3.726 0 0 0-3.726 3.726v35.241A3.727 3.727 0 0 0 648.8 1270h27.078a3.728 3.728 0 0 0 3.726-3.726v-3.74a10.617 10.617 0 0 0 9.765-9.479q.053-.533.053-1.086t-.051-1.088zm-32.535-23.21h3.016a1.486 1.486 0 0 0 1.083-.588 1.783 1.783 0 0 0 .267-.886v-.12l-.034-.115a.507.507 0 0 1-.019-.192 1.208 1.208 0 0 1 1.2-1.212 1.245 1.245 0 0 1 1.224 1.255.569.569 0 0 1-.025.177 1.2 1.2 0 0 0 .314 1.205 2.486 2.486 0 0 0 1.041.484h2.974l-.032 1.961h-11.02zm22.769 33.086c-.277.024-.543.082-.825.082a8.871 8.871 0 0 1 0-17.742c.282 0 .548.056.825.081a8.824 8.824 0 0 1 0 17.579z" class="cls-2" data-name="Path 10448"/>
        </g>
        <path id="Path_10449" fill="#264a9f" d="M-915.387 5129.3l5.138-7.276a1.1 1.1 0 0 0 .187-.826 1.1 1.1 0 0 0-.427-.7l-.058-.067h-.04a1.1 1.1 0 0 0-.757-.141 1.1 1.1 0 0 0-.717.454l-4.341 6.147-3.351-3.686a1.1 1.1 0 0 0-.768-.362 1.112 1.112 0 0 0-.8.287 1.1 1.1 0 0 0-.362.768 1.1 1.1 0 0 0 .287.8l4.282 4.709a1.113 1.113 0 0 0 .821.36 1.109 1.109 0 0 0 .751-.292 1.1 1.1 0 0 0 .155-.175z" data-name="Path 10449" transform="translate(2289.483 -2820.87)"/>
    </g>
</svg>
