<svg xmlns="http://www.w3.org/2000/svg" width="46" height="45.999" viewBox="0 0 46 45.999">
  <defs>
    <style>
      .cls-1 {
        fill: #264a9f;
        stroke: rgba(0,0,0,0);
        stroke-miterlimit: 10;
      }
    </style>
  </defs>
  <g id="Group_1366" data-name="Group 1366" transform="translate(0.5 0.5)">
    <path id="Path_972" data-name="Path 972" class="cls-1" d="M1070.447,537.243a22.5,22.5,0,1,0,6.59,15.91A22.43,22.43,0,0,0,1070.447,537.243Zm-2.162,29.658a19.445,19.445,0,1,1,5.694-13.748A19.314,19.314,0,0,1,1068.285,566.9Z" transform="translate(-1032.037 -530.653)"/>
    <path id="Path_973" data-name="Path 973" class="cls-1" d="M1043.176,546.4a3.393,3.393,0,1,0-3.394-3.393A3.4,3.4,0,0,0,1043.176,546.4Z" transform="translate(-1027.94 -525.911)"/>
    <path id="Path_974" data-name="Path 974" class="cls-1" d="M1052.68,546.4a3.393,3.393,0,1,0-3.394-3.393A3.4,3.4,0,0,0,1052.68,546.4Z" transform="translate(-1022.913 -525.911)"/>
    <path id="Path_975" data-name="Path 975" class="cls-1" d="M1061.219,547.24h-.32a1.716,1.716,0,0,0-1.567,1.014,8.159,8.159,0,0,1-4.257,4.179,10.748,10.748,0,0,1-8.495,0,8.143,8.143,0,0,1-4.249-4.173,1.716,1.716,0,0,0-1.567-1.018l-.381.015-.286.121a1.723,1.723,0,0,0-.9,2.276,11.574,11.574,0,0,0,6.018,5.926,13.851,13.851,0,0,0,5.584,1.171.422.422,0,0,0,.061,0,13.838,13.838,0,0,0,5.575-1.164,11.577,11.577,0,0,0,6.03-5.932l.26-.717-.549-1.289Z" transform="translate(-1028.325 -521.881)"/>
  </g>
</svg>
